<?xml version="1.0" encoding="UTF-8" standalone="no"?>
<!-- Created with Inkscape (http://www.inkscape.org/) -->
<svg
   xmlns:svg="http://www.w3.org/2000/svg"
   xmlns="http://www.w3.org/2000/svg"
   xmlns:xlink="http://www.w3.org/1999/xlink"
   version="1.0"
   width="48"
   height="48"
   id="svg2963">
  <defs
     id="defs3">
    <linearGradient
       x1="16.4902"
       y1="6.3042002"
       x2="16.4902"
       y2="21.411301"
       id="linearGradient3261"
       gradientUnits="userSpaceOnUse">
      <stop
         id="stop3263"
         style="stop-color:#ffffb2;stop-opacity:1"
         offset="0.2088" />
      <stop
         id="stop3269"
         style="stop-color:#ffffff;stop-opacity:1"
         offset="0.3972649" />
      <stop
         id="stop3267"
         style="stop-color:#ffff97;stop-opacity:1"
         offset="0.53957814" />
      <stop
         id="stop3265"
         style="stop-color:#ffffcd;stop-opacity:1"
         offset="0.62089998" />
    </linearGradient>
    <linearGradient
       id="linearGradient3817">
      <stop
         id="stop3819"
         style="stop-color:#d68f21;stop-opacity:1"
         offset="0" />
      <stop
         id="stop3821"
         style="stop-color:#d68f21;stop-opacity:0"
         offset="1" />
    </linearGradient>
    <linearGradient
       x1="16.4902"
       y1="6.3042002"
       x2="16.4902"
       y2="21.411301"
       id="SVGID_1_"
       gradientUnits="userSpaceOnUse">
      <stop
         id="stop2741"
         style="stop-color:#fed3aa;stop-opacity:1"
         offset="0.2088" />
      <stop
         id="stop2743"
         style="stop-color:#eaba6f;stop-opacity:1"
         offset="0.62089998" />
    </linearGradient>
    <radialGradient
       cx="605.71429"
       cy="486.64789"
       r="117.14286"
       fx="605.71429"
       fy="486.64789"
       id="radialGradient6719"
       xlink:href="#linearGradient5060"
       gradientUnits="userSpaceOnUse"
       gradientTransform="matrix(-2.774389,0,0,1.969706,112.7623,-872.8854)" />
    <linearGradient
       id="linearGradient5060">
      <stop
         id="stop5062"
         style="stop-color:#000000;stop-opacity:1"
         offset="0" />
      <stop
         id="stop5064"
         style="stop-color:#000000;stop-opacity:0"
         offset="1" />
    </linearGradient>
    <radialGradient
       cx="605.71429"
       cy="486.64789"
       r="117.14286"
       fx="605.71429"
       fy="486.64789"
       id="radialGradient6717"
       xlink:href="#linearGradient5060"
       gradientUnits="userSpaceOnUse"
       gradientTransform="matrix(2.774389,0,0,1.969706,-1891.633,-872.8854)" />
    <linearGradient
       id="linearGradient5048">
      <stop
         id="stop5050"
         style="stop-color:#000000;stop-opacity:0"
         offset="0" />
      <stop
         id="stop5056"
         style="stop-color:#000000;stop-opacity:1"
         offset="0.5" />
      <stop
         id="stop5052"
         style="stop-color:#000000;stop-opacity:0"
         offset="1" />
    </linearGradient>
    <linearGradient
       x1="302.85715"
       y1="366.64789"
       x2="302.85715"
       y2="609.50507"
       id="linearGradient6715"
       xlink:href="#linearGradient5048"
       gradientUnits="userSpaceOnUse"
       gradientTransform="matrix(2.774389,0,0,1.969706,-1892.179,-872.8854)" />
    <linearGradient
       x1="37.279186"
       y1="14.862945"
       x2="23.634516"
       y2="12.913706"
       id="linearGradient3823"
       xlink:href="#linearGradient3817"
       gradientUnits="userSpaceOnUse"
       gradientTransform="matrix(1.1214953,0,0,1.1666666,-2.9454908,-2.5177664)" />
    <linearGradient
       x1="37.279186"
       y1="14.862945"
       x2="23.634516"
       y2="12.913706"
       id="linearGradient3827"
       xlink:href="#linearGradient3817"
       gradientUnits="userSpaceOnUse"
       gradientTransform="matrix(-1.1121495,0,0,1.2,49.338204,-3.0700507)" />
    <linearGradient
       x1="24.609137"
       y1="7.6687818"
       x2="24.609137"
       y2="25.833755"
       id="linearGradient3299"
       xlink:href="#linearGradient3261"
       gradientUnits="userSpaceOnUse" />
  </defs>
  <g
     transform="matrix(2.105461e-2,0,0,2.086758e-2,42.60172,35.4036)"
     id="g6707"
     style="opacity:0.80246911;display:inline">
    <rect
       width="1339.6335"
       height="478.35718"
       x="-1559.2523"
       y="-150.69685"
       id="rect6709"
       style="opacity:0.40206185;fill:url(#linearGradient6715);fill-opacity:1;fill-rule:nonzero;stroke:none;stroke-width:1;stroke-linecap:round;stroke-linejoin:miter;marker:none;marker-start:none;marker-mid:none;marker-end:none;stroke-miterlimit:4;stroke-dasharray:none;stroke-dashoffset:0;stroke-opacity:1;visibility:visible;display:inline;overflow:visible" />
    <path
       d="M -219.61876,-150.68038 C -219.61876,-150.68038 -219.61876,327.65041 -219.61876,327.65041 C -76.744594,328.55086 125.78146,220.48075 125.78138,88.454235 C 125.78138,-43.572302 -33.655436,-150.68036 -219.61876,-150.68038 z"
       id="path6711"
       style="opacity:0.40206185;fill:url(#radialGradient6717);fill-opacity:1;fill-rule:nonzero;stroke:none;stroke-width:1;stroke-linecap:round;stroke-linejoin:miter;marker:none;marker-start:none;marker-mid:none;marker-end:none;stroke-miterlimit:4;stroke-dasharray:none;stroke-dashoffset:0;stroke-opacity:1;visibility:visible;display:inline;overflow:visible" />
    <path
       d="M -1559.2523,-150.68038 C -1559.2523,-150.68038 -1559.2523,327.65041 -1559.2523,327.65041 C -1702.1265,328.55086 -1904.6525,220.48075 -1904.6525,88.454235 C -1904.6525,-43.572302 -1745.2157,-150.68036 -1559.2523,-150.68038 z"
       id="path6713"
       style="opacity:0.40206185;fill:url(#radialGradient6719);fill-opacity:1;fill-rule:nonzero;stroke:none;stroke-width:1;stroke-linecap:round;stroke-linejoin:miter;marker:none;marker-start:none;marker-mid:none;marker-end:none;stroke-miterlimit:4;stroke-dasharray:none;stroke-dashoffset:0;stroke-opacity:1;visibility:visible;display:inline;overflow:visible" />
  </g>
  <g
     transform="translate(6.9008633,7.1095533)"
     id="closed_box_1_">
    <linearGradient
       x1="16.4902"
       y1="6.3042002"
       x2="16.4902"
       y2="21.411301"
       id="linearGradient2770"
       gradientUnits="userSpaceOnUse">
      <stop
         id="stop2772"
         style="stop-color:#fed3aa;stop-opacity:1"
         offset="0.2088" />
      <stop
         id="stop2774"
         style="stop-color:#eaba6f;stop-opacity:1"
         offset="0.62089998" />
    </linearGradient>
    <path
       d="M 31.25,7.825 L 27.621,2.943 C 27.621,2.943 26.933,2.068 25.132,1.683 L 16.184,0.506 L 7.848,1.682 C 6.496,1.817 5.496,2.817 5.496,2.817 L 1.729,7.825 C 1.259,8.413 0.5,8.822 0.5,11.029 L 0.5,28.687 C 0.5,30.009 1.586,31.082 2.925,31.082 L 30.055,31.082 C 31.394,31.082 32.48,30.01 32.48,28.687 L 32.48,11.029 C 32.479,9.085 31.721,8.413 31.25,7.825 z"
       id="path2745"
       style="fill:url(#SVGID_1_);stroke:#9f6928;stroke-width:1" />
    <path
       d="M 31.477,10.981 C 31.462,9.884 31.162,9.259 30.289,8.137 L 26.934,3.755 C 26.934,3.755 26.122,2.88 24.809,2.63 L 16.184,1.505 L 7.881,2.681 C 6.871,2.755 6.059,3.755 6.059,3.755 L 2.589,8.3 C 1.717,9.422 1.54,9.681 1.54,10.981 C 1.54,10.986 1.537,10.991 1.537,10.996 L 1.537,28.726 C 1.537,29.436 2.112,30.01 2.822,30.01 L 30.056,30.01 C 30.766,30.01 31.479,29.436 31.479,28.726 L 31.477,10.981 z"
       id="path2747"
       style="opacity:0.47999998;fill:none;stroke:#ffffff;stroke-width:1" />
    <path
       d="M 2.746,10.005 C 2.746,10.005 12.308,8.005 16.121,8.005 C 19.934,8.005 30.183,10.067 30.183,10.067"
       id="path2749"
       style="opacity:0.6;fill:none;stroke:#ffffff;stroke-width:1;stroke-linecap:round" />
    <path
       d="M 30.746,10.567 C 30.746,9.721 16.235,8.522 16.235,8.522 C 16.235,8.522 1.996,9.764 1.996,10.567"
       id="path2751"
       style="fill:#9f6928" />
    <polygon
       points="15.496,9.255 15.929,0.88 16.371,0.88 16.809,9.255 15.496,9.255 "
       id="polygon2753"
       style="fill:#9f6928" />
    <line
       x1="15.371"
       y1="2.0669999"
       x2="14.996"
       y2="7.6919999"
       id="line2755"
       style="opacity:0.5;fill:none;stroke:#ffffff;stroke-width:1" />
    <line
       x1="17.309"
       y1="7.5669999"
       x2="16.934"
       y2="1.942"
       id="line2757"
       style="opacity:0.5;fill:none;stroke:#ffffff;stroke-width:1" />
    <line
       x1="2.059"
       y1="11.005"
       x2="30.934"
       y2="11.005"
       id="line2759"
       style="opacity:0.31000001;fill:none;stroke:#9f6928" />
  </g>
  <path
     d="M 24.243655,8.2842639 L 24.653541,14.53807 L 38.862945,16.812183 L 34.627449,10.700508 C 34.627449,10.700508 33.944304,9.7055833 31.211728,9.2791877 C 28.479151,8.8527919 24.380283,8.2842639 24.243655,8.2842639 z"
     id="path2846"
     style="opacity:0.51234568;fill:url(#linearGradient3823);fill-opacity:1;fill-rule:evenodd;stroke:none;stroke-width:1px;stroke-linecap:butt;stroke-linejoin:miter;stroke-opacity:1" />
  <path
     d="M 22.375635,8.0406091 L 21.969164,14.473096 L 7.8781728,16.812183 L 12.078372,10.525889 C 12.078372,10.525889 12.755824,9.5025376 15.46563,9.0639593 C 18.175435,8.6253808 22.240145,8.0406091 22.375635,8.0406091 z"
     id="path3825"
     style="opacity:0.44444442;fill:url(#linearGradient3827);fill-opacity:1;fill-rule:evenodd;stroke:none;stroke-width:1px;stroke-linecap:butt;stroke-linejoin:miter;stroke-opacity:1" />
  <path
     d="M 23.03125,7.8453363 L 20.84375,8.1016815 L 19.75,15.96875 L 19.75,25.28125 L 20.875,24.481335 L 21.96875,25.40625 L 23.21875,24.481335 L 24.25,25.3125 L 25.25,24.481335 L 26.3125,25.375 L 26.3125,15.84375 L 24.96875,8.1016815 L 23.03125,7.8453363 z"
     id="path2280"
     style="opacity:0.70987657;fill:url(#linearGradient3299);fill-opacity:1;fill-rule:evenodd;stroke:#9f6928;stroke-width:0.5;stroke-linecap:butt;stroke-linejoin:miter;stroke-miterlimit:4;stroke-dasharray:none;stroke-opacity:1" />
  <path
     d="M 38.150863,14.934553 L 34.521863,10.052553 C 34.521863,10.052553 33.833863,9.1775533 32.032863,8.7925533 L 23.084863,7.6155533 L 14.748863,8.7915533 C 13.396863,8.9265533 12.396863,9.9265533 12.396863,9.9265533 L 8.629863,14.934553 C 8.159863,15.522553 7.400863,15.931553 7.400863,18.138553 L 7.400863,35.796553 C 7.400863,37.118553 8.486863,38.191553 9.825863,38.191553 L 36.955863,38.191553 C 38.294863,38.191553 39.380863,37.119553 39.380863,35.796553 L 39.380863,18.138553 C 39.379863,16.194553 38.621863,15.522553 38.150863,14.934553 z"
     id="path2244"
     style="opacity:0.3;fill:#ffffff;fill-opacity:1;stroke:#ffffff;stroke-width:1;stroke-opacity:1" />
</svg>
