<?xml version="1.0" encoding="UTF-8" standalone="no"?>
<!-- Created with Inkscape (http://www.inkscape.org/) -->
<svg
   xmlns:svg="http://www.w3.org/2000/svg"
   xmlns="http://www.w3.org/2000/svg"
   xmlns:xlink="http://www.w3.org/1999/xlink"
   xmlns:inkscape="http://www.inkscape.org/namespaces/inkscape"
   version="1.0"
   width="48"
   height="48"
   id="svg7854">
  <defs
     id="defs7856">
    <linearGradient
       id="linearGradient5202">
      <stop
         style="stop-color:#ffffff;stop-opacity:1"
         offset="0"
         id="stop5204" />
      <stop
         style="stop-color:#ffffff;stop-opacity:0"
         offset="1"
         id="stop5206" />
    </linearGradient>
    <linearGradient
       id="linearGradient5190">
      <stop
         style="stop-color:#f57900;stop-opacity:1"
         offset="0"
         id="stop5192" />
      <stop
         style="stop-color:#fcaf3e;stop-opacity:1"
         offset="1"
         id="stop5194" />
    </linearGradient>
    <linearGradient
       id="linearGradient5130">
      <stop
         style="stop-color:#000000;stop-opacity:1"
         offset="0"
         id="stop5132" />
      <stop
         style="stop-color:#000000;stop-opacity:0"
         offset="1"
         id="stop5134" />
    </linearGradient>
    <radialGradient
       cx="22"
       cy="38.5"
       r="13"
       fx="22"
       fy="38.5"
       id="radialGradient5136"
       xlink:href="#linearGradient5130"
       gradientUnits="userSpaceOnUse"
       gradientTransform="matrix(1,0,0,0.5,0,19.25)" />
    <filter
       id="filter5186"
       height="1.6939759"
       y="-0.34698796"
       width="1.346988"
       x="-0.17349398">
      <feGaussianBlur
         id="feGaussianBlur5188"
         stdDeviation="1.8795181"
         inkscape:collect="always" />
    </filter>
    <radialGradient
       cx="21.525126"
       cy="30.439341"
       r="18.888176"
       fx="21.525126"
       fy="30.439341"
       id="radialGradient5200"
       xlink:href="#linearGradient5190"
       gradientUnits="userSpaceOnUse"
       gradientTransform="matrix(0,-1.2519025,47.292244,0,-1418.0196,57.3867)" />
    <linearGradient
       x1="22.109375"
       y1="11.34375"
       x2="22.109375"
       y2="49.612667"
       id="linearGradient5208"
       xlink:href="#linearGradient5202"
       gradientUnits="userSpaceOnUse" />
    <linearGradient
       x1="37.502811"
       y1="35.458244"
       x2="36.499001"
       y2="27.403761"
       id="linearGradient6690"
       xlink:href="#linearGradient6684"
       gradientUnits="userSpaceOnUse"
       gradientTransform="scale(0.843938,1.184922)" />
    <radialGradient
       cx="26.887432"
       cy="20.479359"
       r="14.6944"
       fx="26.887432"
       fy="20.479359"
       id="radialGradient6678"
       xlink:href="#aigrd2"
       gradientUnits="userSpaceOnUse"
       gradientTransform="matrix(1.135551,0,0,1.135551,-4.540325,-2.077433)" />
    <radialGradient
       cx="24.452202"
       cy="19.818913"
       r="33.156136"
       fx="24.452202"
       fy="19.818913"
       id="radialGradient6675"
       xlink:href="#linearGradient6665"
       gradientUnits="userSpaceOnUse"
       gradientTransform="matrix(1.024478,0,0,0.976107,1.646447,-0.353552)" />
    <radialGradient
       cx="24.452202"
       cy="19.818913"
       r="33.156136"
       fx="24.452202"
       fy="19.818913"
       id="radialGradient6663"
       xlink:href="#linearGradient6665"
       gradientUnits="userSpaceOnUse"
       gradientTransform="matrix(1.024478,0,0,0.976107,0.939339,-0.530329)" />
    <linearGradient
       x1="38.506161"
       y1="22.886259"
       x2="38.250904"
       y2="35.01786"
       id="linearGradient6631"
       xlink:href="#linearGradient6625"
       gradientUnits="userSpaceOnUse"
       gradientTransform="matrix(0.843938,0,0,1.184922,-1.28033,1.68934)" />
    <linearGradient
       x1="18.570419"
       y1="9.4436626"
       x2="29.957399"
       y2="22.783224"
       id="linearGradient6623"
       xlink:href="#linearGradient6617"
       gradientUnits="userSpaceOnUse"
       gradientTransform="matrix(1.02867,0,0,0.972129,-1.28033,1.18934)" />
    <linearGradient
       x1="15.338736"
       y1="5.9244628"
       x2="43.14098"
       y2="49.895073"
       id="linearGradient6610"
       xlink:href="#linearGradient6604"
       gradientUnits="userSpaceOnUse"
       gradientTransform="matrix(0.975728,0,0,0.931033,-0.132002,1.978392)" />
    <radialGradient
       cx="28.789101"
       cy="20.971201"
       r="13.2807"
       fx="28.789101"
       fy="20.971201"
       id="radialGradient5284"
       xlink:href="#aigrd1"
       gradientUnits="userSpaceOnUse"
       gradientTransform="matrix(1.310386,0,0,1.310386,-8.642682,-4.375977)" />
    <radialGradient
       cx="19.292"
       cy="13.5444"
       r="14.6944"
       fx="19.292"
       fy="13.5444"
       id="aigrd2"
       gradientUnits="userSpaceOnUse">
      <stop
         style="stop-color:#e41e08;stop-opacity:1"
         offset="0"
         id="stop5122" />
      <stop
         style="stop-color:#901505;stop-opacity:1"
         offset="1"
         id="stop5124" />
    </radialGradient>
    <radialGradient
       cx="28.789101"
       cy="20.971201"
       r="13.2807"
       fx="28.789101"
       fy="20.971201"
       id="aigrd1"
       gradientUnits="userSpaceOnUse">
      <stop
         style="stop-color:#e41e08;stop-opacity:1"
         offset="0"
         id="stop5115" />
      <stop
         style="stop-color:#901505;stop-opacity:1"
         offset="1"
         id="stop5117" />
    </radialGradient>
    <linearGradient
       id="linearGradient6604">
      <stop
         style="stop-color:#ffa196;stop-opacity:1"
         offset="0"
         id="stop6606" />
      <stop
         style="stop-color:#ff1f06;stop-opacity:0"
         offset="1"
         id="stop6608" />
    </linearGradient>
    <linearGradient
       id="linearGradient6617">
      <stop
         style="stop-color:#ffffff;stop-opacity:0.24742268"
         offset="0"
         id="stop6619" />
      <stop
         style="stop-color:#ffffff;stop-opacity:0"
         offset="1"
         id="stop6621" />
    </linearGradient>
    <linearGradient
       id="linearGradient6625">
      <stop
         style="stop-color:#1d2349;stop-opacity:1"
         offset="0"
         id="stop6627" />
      <stop
         style="stop-color:#4c5279;stop-opacity:1"
         offset="0.35315102"
         id="stop6637" />
      <stop
         style="stop-color:#b3bdff;stop-opacity:1"
         offset="0.46551725"
         id="stop6633" />
      <stop
         style="stop-color:#727cbe;stop-opacity:1"
         offset="0.64982164"
         id="stop6635" />
      <stop
         style="stop-color:#323c7e;stop-opacity:1"
         offset="1"
         id="stop6629" />
    </linearGradient>
    <linearGradient
       id="linearGradient6665">
      <stop
         style="stop-color:#000000;stop-opacity:1"
         offset="0"
         id="stop6667" />
      <stop
         style="stop-color:#000000;stop-opacity:0"
         offset="1"
         id="stop6669" />
    </linearGradient>
    <linearGradient
       id="linearGradient6684">
      <stop
         style="stop-color:#d5dbff;stop-opacity:1"
         offset="0"
         id="stop6686" />
      <stop
         style="stop-color:#6579ff;stop-opacity:0"
         offset="1"
         id="stop6688" />
    </linearGradient>
  </defs>
  <g
     id="layer1">
    <path
       d="M 35 38.5 A 13 6.5 0 1 1  9,38.5 A 13 6.5 0 1 1  35 38.5 z"
       transform="matrix(1.3257204,0,0,1.3060079,-3.6937336,-12.797355)"
       style="opacity:0.43373497;color:#000000;fill:url(#radialGradient5136);fill-opacity:1;fill-rule:nonzero;stroke:none;stroke-width:1;stroke-linecap:butt;stroke-linejoin:miter;marker:none;marker-start:none;marker-mid:none;marker-end:none;stroke-miterlimit:4;stroke-dasharray:none;stroke-dashoffset:0;stroke-opacity:1;visibility:visible;display:inline;overflow:visible;filter:url(#filter5186);enable-background:accumulate"
       id="path4551" />
    <path
       d="M 35.099492,35.723338 L 26.703003,33.840596 L 22.097088,41.10911 L 17.491173,33.840597 L 9.094684,35.723338 L 10.977425,27.32685 L 3.7089119,22.720934 L 10.977425,18.115019 L 9.0946839,9.71853 L 17.491172,11.601271 L 22.097088,4.3327579 L 26.703002,11.601271 L 35.099492,9.71853 L 33.21675,18.115018 L 40.485264,22.720934 L 33.216751,27.326849 L 35.099492,35.723338 z "
       transform="matrix(1.1209343,0,0,1.1042669,-0.1974224,-1.3744715)"
       style="opacity:1;color:#000000;fill:url(#radialGradient5200);fill-opacity:1;fill-rule:nonzero;stroke:#ce5c00;stroke-width:1;stroke-linecap:butt;stroke-linejoin:miter;marker:none;marker-start:none;marker-mid:none;marker-end:none;stroke-miterlimit:4;stroke-dasharray:none;stroke-dashoffset:0;stroke-opacity:1;visibility:visible;display:inline;overflow:visible;enable-background:accumulate"
       id="path4547" />
    <path
       d="M 22.09375,6.15625 L 18.3125,12.125 C 18.087547,12.462771 17.676134,12.624843 17.28125,12.53125 L 10.375,11 L 11.90625,17.90625 C 11.999843,18.301134 11.837771,18.712547 11.5,18.9375 L 5.53125,22.71875 L 11.5,26.5 C 11.837771,26.724953 11.999843,27.136366 11.90625,27.53125 L 10.375,34.4375 L 17.28125,32.90625 C 17.676134,32.812657 18.087547,32.974729 18.3125,33.3125 L 22.09375,39.28125 L 25.875,33.3125 C 26.099953,32.974729 26.511366,32.812657 26.90625,32.90625 L 33.8125,34.4375 L 32.28125,27.53125 C 32.187657,27.136366 32.349729,26.724953 32.6875,26.5 L 38.6875,22.71875 L 32.6875,18.9375 C 32.349729,18.712547 32.187657,18.301134 32.28125,17.90625 L 33.8125,11 L 26.90625,12.53125 C 26.511366,12.624843 26.099953,12.462771 25.875,12.125 L 22.09375,6.15625 z "
       transform="matrix(1.1263736,0,0,1.1263736,-0.2940419,-1.8085508)"
       style="opacity:0.33734939;color:#000000;fill:none;fill-opacity:1;fill-rule:nonzero;stroke:url(#linearGradient5208);stroke-width:1;stroke-linecap:butt;stroke-linejoin:miter;marker:none;marker-start:none;marker-mid:none;marker-end:none;stroke-miterlimit:4;stroke-dasharray:none;stroke-dashoffset:0;stroke-opacity:1;visibility:visible;display:inline;overflow:visible;enable-background:accumulate"
       id="path5198" />
    <g
       transform="matrix(0.5987653,0,0,0.5987653,19.582915,16.721141)"
       id="g2355">
      <path
         d="M 25.38911,19.305038 C 25.38911,19.305038 19.484245,27.481005 19.484245,31.228324 C 19.484245,34.975642 26.297551,32.93165 29.022873,35.656973 C 31.748195,38.382295 22.663787,45.422711 22.663787,45.422711 L 31.748195,42.924499 L 35.381959,46.785372 C 35.381959,42.129613 40.719048,38.382295 37.993726,35.543418 C 35.154848,32.70454 27.092436,33.045205 26.638216,29.297887 C 26.183995,25.550569 25.502665,19.418593 25.502665,19.418593 L 25.38911,19.305038 z "
         style="opacity:0.48044691;color:#000000;fill:url(#radialGradient6675);fill-opacity:1;fill-rule:nonzero;stroke:none;stroke-width:1;stroke-linecap:round;stroke-linejoin:round;marker:none;marker-start:none;marker-mid:none;marker-end:none;stroke-miterlimit:4;stroke-dashoffset:0;stroke-opacity:1;visibility:visible;display:inline;overflow:visible"
         id="path6671" />
      <path
         d="M 36.91616,9.3946518 C 38.237688,12.452028 40.559293,12.29647 40.616709,16.377167 C 40.649454,18.652929 42.449165,19.84791 42.449165,22.172684 C 42.449165,24.497457 38.43415,25.646156 37.066636,27.013668 C 35.699121,28.381184 37.174521,31.888095 33.464606,32.918627 C 29.789944,33.939367 27.994548,32.508375 25.669774,32.508375 C 23.344998,32.508375 17.781956,36.991063 15.730683,34.93979 C 13.679411,32.888519 13.635647,28.405831 11.857879,26.628063 C 9.9433579,24.713542 6.9184435,22.038663 6.9184435,18.619877 C 6.9184435,15.201092 8.8926489,13.396291 11.721128,10.217892 C 14.639403,6.9385873 14.729659,2.0128046 18.148445,2.0128046 C 21.56723,2.0128046 22.877627,2.9506145 25.787409,2.8770766 C 30.425746,2.7598534 30.994149,0.55375463 34.405481,2.2835766 C 37.413183,3.808726 35.881638,7.0012699 36.91616,9.3946518 z "
         style="opacity:0.48044691;fill:url(#radialGradient6663);fill-opacity:1;fill-rule:nonzero;stroke:none;stroke-linecap:round;stroke-linejoin:round;stroke-miterlimit:4;stroke-opacity:1"
         id="path6639" />
      <path
         d="M 23.62134,18.067599 C 23.62134,18.067599 17.716475,26.243566 17.716475,29.990885 C 17.716475,33.738203 24.529781,31.694211 27.255103,34.419534 C 29.980425,37.144856 20.896017,44.185272 20.896017,44.185272 L 29.980425,41.68706 L 33.614189,45.547933 C 33.614189,40.892174 38.951278,37.144856 36.225956,34.305979 C 33.387078,31.467101 25.324666,31.807766 24.870446,28.060448 C 24.416225,24.31313 23.734895,18.181154 23.734895,18.181154 L 23.62134,18.067599 z "
         style="fill:url(#linearGradient6631);fill-opacity:1;fill-rule:nonzero;stroke:#1f254f;stroke-width:1;stroke-miterlimit:6.5999999;stroke-opacity:1"
         id="path5112" />
      <path
         d="M 20.803213,31.602421 C 25.355213,32.050805 28.232227,32.837946 28.609835,35.591528 C 28.939949,37.998767 24.377692,42.324487 24.377692,42.324487 L 30.22158,40.699741 L 33.06295,43.660691 C 33.725862,39.949751 37.427758,37.438687 35.741856,35.156087 C 33.627168,32.292939 26.775807,32.91262 26.448257,30.210335 C 26.120707,27.508049 18.114196,31.33495 20.803213,31.602421 z "
         style="fill:none;fill-opacity:1;fill-rule:nonzero;stroke:url(#linearGradient6690);stroke-width:0.72112519;stroke-miterlimit:6.5999999;stroke-opacity:1"
         id="path6680" />
      <path
         d="M 34.935485,9.2468088 C 36.201806,12.176463 38.426426,12.027404 38.481444,15.93763 C 38.512821,18.118322 40.237349,19.263383 40.237349,21.491039 C 40.237349,23.718695 36.390061,24.819407 35.079675,26.129792 C 33.769288,27.44018 35.183053,30.80059 31.628119,31.788071 C 28.106966,32.76617 26.386573,31.394957 24.158916,31.394957 C 21.931258,31.394957 16.600611,35.690381 14.63503,33.7248 C 12.66945,31.759221 12.627514,27.463797 10.924012,25.760295 C 9.0894699,23.925753 6.1909207,21.362617 6.1909207,18.086651 C 6.1909207,14.810685 8.0826538,13.08128 10.792974,10.035658 C 13.589338,6.8933472 13.675824,2.1733389 16.95179,2.1733389 C 20.227756,2.1733389 21.483411,3.0719718 24.271637,3.0015059 C 28.716208,2.8891797 29.260866,0.77524063 32.529689,2.4327994 C 35.411745,3.8942357 33.94418,6.9534113 34.935485,9.2468088 z "
         style="fill:url(#radialGradient5284);fill-rule:nonzero;stroke:#4c0901;stroke-linecap:round;stroke-linejoin:round;stroke-miterlimit:4;stroke-opacity:1"
         id="path5119" />
      <path
         d="M 34.97685,17.567599 C 34.97685,23.81313 29.86687,28.923109 23.62134,28.923109 C 17.375809,28.923109 12.26583,23.81313 12.26583,17.567599 C 12.26583,11.322069 17.375809,6.2120891 23.62134,6.2120891 C 29.86687,6.2120891 34.97685,11.322069 34.97685,17.567599 z "
         style="fill:url(#radialGradient6678);fill-rule:nonzero;stroke:none;stroke-miterlimit:4"
         id="path5126" />
      <path
         d="M 33.888971,10.030124 C 35.042232,12.698211 37.068232,12.56246 37.118338,16.123571 C 37.146913,18.109565 38.71747,19.152392 38.71747,21.181157 C 38.71747,23.209922 35.213679,24.212359 34.020288,25.405749 C 32.826895,26.599143 34.114436,29.659526 30.876896,30.558842 C 27.670121,31.449613 26.103329,30.200827 24.074563,30.200827 C 22.045797,30.200827 17.191084,34.112744 15.400995,32.322655 C 13.610908,30.532568 13.572716,26.620651 12.021307,25.069242 C 10.350558,23.398493 7.7107989,21.064201 7.7107989,18.080722 C 7.7107989,15.097243 9.4336334,13.522243 11.901968,10.748543 C 14.448666,7.8867861 14.52743,3.5881928 17.510909,3.5881928 C 20.494388,3.5881928 21.637935,4.4065934 24.177221,4.3424188 C 28.224968,4.2401214 28.720998,2.3149204 31.697971,3.8244879 C 34.32271,5.1554433 32.986173,7.9414875 33.888971,10.030124 z "
         style="fill:none;fill-rule:nonzero;stroke:url(#linearGradient6610);stroke-linecap:round;stroke-linejoin:round;stroke-miterlimit:4;stroke-opacity:1"
         id="path6600" />
      <path
         d="M 23.66325,7.0524597 C 17.795434,7.0524597 13.016988,11.794692 13.016988,17.66251 C 13.016988,21.333503 15.000693,24.443138 17.833154,26.353336 C 25.073625,22.456374 23.786958,15.548148 33.44043,13.606789 C 31.841424,9.7576868 28.088842,7.0524597 23.66325,7.0524597 z "
         style="opacity:1;color:#000000;fill:url(#linearGradient6623);fill-opacity:1;fill-rule:nonzero;stroke:none;stroke-width:1;stroke-linecap:round;stroke-linejoin:round;marker:none;marker-start:none;marker-mid:none;marker-end:none;stroke-miterlimit:4;stroke-dashoffset:0;stroke-opacity:1;visibility:visible;display:inline;overflow:visible"
         id="path6612" />
    </g>
  </g>
</svg>
