<?xml version="1.0" encoding="UTF-8" standalone="no"?>
<svg
   xmlns:dc="http://purl.org/dc/elements/1.1/"
   xmlns:cc="http://web.resource.org/cc/"
   xmlns:rdf="http://www.w3.org/1999/02/22-rdf-syntax-ns#"
   xmlns:svg="http://www.w3.org/2000/svg"
   xmlns="http://www.w3.org/2000/svg"
   xmlns:sodipodi="http://sodipodi.sourceforge.net/DTD/sodipodi-0.dtd"
   xmlns:inkscape="http://www.inkscape.org/namespaces/inkscape"
   style="fill:#000000;fill-opacity:0.5;stroke:none"
   width="200"
   height="200"
   id="svg1"
   sodipodi:docbase="/home/hughsie/Code/gnome-packagekit/data/icons/scalable/categories"
   sodipodi:docname="pk-desktop-xfce.svg"
   sodipodi:version="0.32"
   inkscape:version="0.45.1"
   inkscape:export-filename="/home/hughsie/Code/gnome-packagekit/data/icons/48x48/categories/pk-desktop-xfce.png"
   inkscape:export-xdpi="24.92"
   inkscape:export-ydpi="24.92"
   inkscape:output_extension="org.inkscape.output.svg.inkscape"
   version="1.0">
  <metadata
     id="metadata13">
    <rdf:RDF>
      <cc:Work
         rdf:about="">
        <dc:format>image/svg+xml</dc:format>
        <dc:type
           rdf:resource="http://purl.org/dc/dcmitype/StillImage" />
      </cc:Work>
    </rdf:RDF>
  </metadata>
  <defs
     id="defs3" />
  <sodipodi:namedview
     id="base"
     height="200px"
     width="200px" />
  <path
     transform="translate(7.99348,-48.3084)"
     style="fill:#7f7f7f;fill-opacity:1;fill-rule:evenodd;stroke:#000000;stroke-width:1px;stroke-linecap:butt;stroke-linejoin:miter;stroke-opacity:1"
     d=""
     id="path12" />
  <g
     id="g23"
     transform="translate(-137.67114,-288.62689)">
    <path
       style="fill:#020202;fill-opacity:1;fill-rule:evenodd;stroke:#000002;stroke-width:1pt;stroke-linecap:butt;stroke-linejoin:miter;stroke-opacity:1"
       id="path14"
       d="M 143.756,326.774 C 144.294,326.684 157.709,333.765 166.726,336.212 C 182.805,340.321 197.482,352.688 204.576,359.792 C 205.102,360.4 210.669,355.624 216.495,355.968 C 224.453,356.45 249.077,363.374 252.367,358.659 C 254.362,355.891 254.219,352.495 256.708,351.104 C 258.048,350.729 251.727,339.168 258.445,335.464 C 263.235,333.07 267.294,346.473 268.524,347.975 C 269.075,348.647 271.998,348.811 271.652,347.28 C 271.277,345.617 266.549,332.756 272.347,330.598 C 281.764,326.869 280.095,347.054 280.34,347.628 C 280.861,348.85 313.137,349.792 315.094,364.31 C 316.226,372.3 289.236,382.627 286.596,384.467 C 283.957,386.307 284.177,389.25 285.206,391.071 C 286.389,393.046 294.252,399.712 293.2,402.887 C 292.477,404.721 277.802,397.999 276.865,399.412 C 274.728,402.111 287.548,408.867 283.121,413.661 C 281.366,414.809 261.174,405.207 261.225,405.32 C 260.683,405.526 232.693,410.433 211.179,403.929 C 210.421,403.715 197.371,416.535 195.887,416.094 C 193.858,415.35 198.878,404.944 198.32,402.887 C 197.408,401.741 189.069,407.54 188.589,404.625 C 188.015,400.794 195.907,396.39 195.54,393.851 C 193.505,379.427 196.449,371.004 201.448,363.963 C 203.115,361.371 181.856,345.317 166.465,338.981 C 151.075,332.645 142.841,327.275 143.756,326.774 z "
       transform="translate(4.86564,17.0296)" />
    <path
       style="fill:#ffffff;fill-opacity:1;fill-rule:evenodd;stroke:#000000;stroke-width:0.6pt;stroke-linecap:butt;stroke-linejoin:miter;stroke-opacity:1"
       id="path7"
       d="M 286.934,392.031 C 286.765,391.441 297.437,384.986 298.982,386.47 C 301.763,387.478 287.032,392.78 286.934,392.031 z " />
    <path
       style="fill:#ffffff;fill-opacity:1;fill-rule:evenodd;stroke:#000000;stroke-width:0.6pt;stroke-linecap:butt;stroke-linejoin:miter;stroke-opacity:1"
       id="path8"
       d="M 292.031,397.901 C 291.091,397.333 298.42,388.787 300.218,389.714 C 302.843,392.322 291.908,398.104 292.031,397.901 z " />
    <path
       style="fill:#020202;fill-opacity:1;fill-rule:evenodd;stroke:#000000;stroke-width:0.6pt;stroke-linecap:butt;stroke-linejoin:miter;stroke-opacity:1"
       id="path13"
       d="M 320.916,358.358 C 320.025,357.621 313.038,368.645 314.583,369.789 C 315.512,370.484 321.314,358.751 320.916,358.358 z " />
    <ellipse
       style="fill:#ffffff;fill-opacity:1;fill-rule:evenodd;stroke:#000000;stroke-width:0.6pt;stroke-linecap:butt;stroke-linejoin:miter;stroke-opacity:1"
       id="ellipse17"
       cx="288.86475"
       cy="374.58655"
       rx="3.012037"
       ry="3.398196"
       transform="matrix(0.9253,0,0,0.933788,22.0283,24.352)"
       sodipodi:cx="288.86475"
       sodipodi:cy="374.58655"
       sodipodi:rx="3.012037"
       sodipodi:ry="3.398196" />
    <path
       style="fill:#020202;fill-opacity:1;fill-rule:evenodd;stroke:#000000;stroke-width:0.6pt;stroke-linecap:butt;stroke-linejoin:miter;stroke-opacity:1"
       id="path18"
       d="M 320.916,358.358 C 320.475,357.846 318.135,369.726 319.217,370.252 C 320.146,370.947 321.764,358.976 320.916,358.358 z "
       transform="translate(-8.0321,-1.54463)" />
    <path
       style="fill:#ffffff;fill-opacity:1;fill-rule:evenodd;stroke:#000000;stroke-width:0.6pt;stroke-linecap:butt;stroke-linejoin:miter;stroke-opacity:1"
       id="path21"
       d="M 321.366,357.908 C 318.595,359.867 322.887,370.953 329.946,364.48 C 324.4,364.643 322.55,363.019 321.366,357.908 z "
       transform="translate(-38.3069,14.983)" />
  </g>
</svg>
